# xmcd
#
# Track frame offsets:
# 150
# 17549
# 32818
# 51956
# 70878
# 93345
# 110810
# 134756
# 146390
# 161338
# 174996
# 194427
# 207890
# 227142
# 237108
# 253060
# 275791
# 296317
#
# Disc length: 4216 seconds
#
#
# Revision: 0
# Processed by: cddbd v1.5.1PL0 Copyright (c) Steve Scherf et al.
# Submitted via: FreeRIP 2.53 
#
DISCID=09107612
DTITLE=Liz Pennock and Dr. Blues - Live From St. Pete
DYEAR=2003
DGENRE=Boogie Woogie
TTITLE0=Ivory 'Neath My Fingers
TTITLE1=Gator Tail
TTITLE2=Stingray Shuffle
TTITLE3=Goin' Back To Tampa
TTITLE4=Queen Of Diamonds
TTITLE5=Swanee River
TTITLE6=Thought I Had It Bad
TTITLE7=Whatever Floats Your Boat
TTITLE8=Queen Of Dramamine
TTITLE9=Play My Piano
TTITLE10=Since He Left Cincy
TTITLE11=Oleander Meander
TTITLE12=Quarter Tank Of Gas
TTITLE13=Birthday Boogie
TTITLE14=Soul Like Me
TTITLE15=St. Pete Boogie
TTITLE16=Lizard In The Kitchen
TTITLE17=Gotta Get Going
EXTD=Upright Records UR 1020
EXTT0=
EXTT1=
EXTT2=
EXTT3=
EXTT4=
EXTT5=
EXTT6=
EXTT7=
EXTT8=
EXTT9=
EXTT10=
EXTT11=
EXTT12=
EXTT13=
EXTT14=
EXTT15=
EXTT16=
EXTT17=
PLAYORDER=
